<?xml version="1.0" encoding="utf-8"?>
<!-- Generator: Adobe Illustrator 19.1.0, SVG Export Plug-In . SVG Version: 6.00 Build 0)  -->
<svg version="1.1" id="Calque_1" xmlns="http://www.w3.org/2000/svg" xmlns:xlink="http://www.w3.org/1999/xlink" x="0px" y="0px"
	 viewBox="0 0 566.9 566.9" style="enable-background:new 0 0 566.9 566.9;" xml:space="preserve">
<path d="M191.7,63.2c35.9,0,71.8,0,107.6,0c0,0.6-0.1,1.2-0.1,1.7c0,50.3,0,100.5,0.1,150.8c0,3.3,0.7,6.8,1.6,10
	c1.4,4.9,5.9,7.4,10.7,5.8c2.8-0.9,5.6-2.4,7.9-4.3c7.4-6.2,14.6-12.8,21.9-19.2c5.6-4.9,11.2-9.9,16.9-15
	c9.4,8.8,18.4,17.5,27.7,25.9c4.7,4.2,9.5,8.4,14.8,11.7c4.9,3.1,10.3,0.7,12-4.9c1.1-3.8,1.8-7.8,1.8-11.7
	c0.1-48.7,0.1-97.5,0.1-146.2c0-1.5,0.1-3,0.1-4.6c11.5,0,23,0,34.5,0c0.4,0.3,0.7,0.6,1.1,0.8c10.3,2.9,16.9,11.9,16.9,24.2
	c-0.1,130.3-0.1,260.5-0.1,390.8c0,2.9-0.1,5.9-1,8.7c-3.3,10.2-11.5,16-22.3,16c-82.9,0-165.8,0-248.7,0c-1,0-2-0.1-3.3-0.2
	c0-1.8,0-3.5,0-5.1c0-143.4,0-286.8,0-430.2C191.8,66.5,191.8,64.9,191.7,63.2z"/>
<path d="M173.9,63.2c0.1,8.1,0.2,16.2,0.2,24.3c0,137.3,0,274.6,0,411.8c0,1.3,0,2.6,0,4.1c-1.2,0.1-2.2,0.2-3.2,0.2
	c-13.7,0-27.4,0-41.1,0c-14.3,0-25.8-8.8-29.3-22.6c-0.7-2.9-0.7-6-0.7-9.1c0-125.6,0-251.1-0.1-376.7c0-8.4,1.6-16.2,7.7-22.2
	c3.1-3,7-5.2,10.8-7.6c1.7-1.1,3.9-1.5,5.8-2.2C140.6,63.2,157.3,63.2,173.9,63.2z"/>
</svg>
