<?xml version="1.0" encoding="utf-8"?>
<!-- Generator: Adobe Illustrator 19.1.0, SVG Export Plug-In . SVG Version: 6.00 Build 0)  -->
<svg version="1.1" id="Calque_1" xmlns="http://www.w3.org/2000/svg" xmlns:xlink="http://www.w3.org/1999/xlink" x="0px" y="0px"
	 viewBox="0 0 566.9 566.9" style="enable-background:new 0 0 566.9 566.9;" xml:space="preserve">
<path d="M272.1,517.4c-1.8-1.8-3.6-3.5-5.3-5.3c-11.2-11-7.8-25.2,7.3-29.3c3.9-1.1,8.1-1.3,12.2-1.7c23.3-2.6,42.2-23.1,42.9-46.5
	c0.1-2.6,0.3-5.3,0-7.9c-4.8-46.3,11.1-85.5,40.3-120.8c16.6-20,31.7-41.4,38.3-67.2c14.2-55.4-16.6-116-72.3-142.4
	c-75.7-35.9-165.4,12.8-178.8,97.1c-1.3,8.2-2.8,16.3-4.6,24.4c-2,8.8-7.3,14.1-16.8,13.3c-9.2-0.8-14-6.6-14.7-15.7
	c-2.9-37.5,9-70.6,31-100.2c39.7-53.5,109-77.4,172.8-60.4c66.2,17.7,113.6,71.9,121.5,139.3c4.5,38.3-4.2,73.3-27.2,104.5
	c-9.4,12.7-19,25.3-28.3,38.1c-16.5,22.6-25.4,47.6-24.3,75.9c0.3,7.9,0.2,15.8,0,23.7c-0.7,37.2-21.1,65.2-56.4,77.4
	c-2.7,1-5.4,2.3-8,3.4C291.7,517.4,281.9,517.4,272.1,517.4z"/>
<path d="M167.8,208.5c1.5-47.2,37.4-92.9,83-107.2c44.5-13.9,94.5,3.4,123,42.9c13.7,19,22.7,39.9,23.3,63.7
	c0.2,8,0.2,16.8-10.3,18.5c-10.1,1.6-15.1-4.9-17.6-13.6c-2-6.8-4.1-13.7-5.4-20.7c-7.4-38.6-44.5-69.4-84.4-67.1
	c-37.2,2.1-72.3,30.4-81.7,69.8c-1.6,6.6-2.6,13.3-3.7,20c-1.4,8.4-5.1,14.4-14.8,13.3c-9.1-1.1-11-7.9-11.2-15.6
	C167.7,210.6,167.8,208.7,167.8,208.5z"/>
<path d="M230.3,259.6c8.7,0.2,16.5,8.1,16.5,16.7c0,9-8.5,17.3-17.5,16.9c-8.6-0.3-16-8.5-15.7-17.4
	C213.9,266.9,221.6,259.4,230.3,259.6z"/>
<path d="M282.4,240.3c-8.9-0.2-16.8-8-16.6-16.4c0.2-9.2,8.5-16.8,17.9-16.3c8.9,0.4,16.1,8.2,15.9,17
	C299.3,233.4,291.6,240.6,282.4,240.3z"/>
</svg>
