<?xml version="1.0" encoding="utf-8"?>
<!-- Generator: Adobe Illustrator 19.1.0, SVG Export Plug-In . SVG Version: 6.00 Build 0)  -->
<svg version="1.1" id="Calque_1" xmlns="http://www.w3.org/2000/svg" xmlns:xlink="http://www.w3.org/1999/xlink" x="0px" y="0px"
	 viewBox="0 0 566.9 566.9" style="enable-background:new 0 0 566.9 566.9;" xml:space="preserve">
<g>
	<g>
		<path d="M56.8,290.1c11.4,0,22.8,0,34.2,0c27.4,0,54.8,0,82.2,0c33.2,0,66.4,0,99.6,0c28.8,0,57.7,0,86.5,0c13.9,0,28,0.6,41.8,0
			c0.2,0,0.4,0,0.6,0c9.7,0,9.7-15,0-15c-11.4,0-22.8,0-34.2,0c-27.4,0-54.8,0-82.2,0c-33.2,0-66.4,0-99.6,0c-28.8,0-57.7,0-86.5,0
			c-13.9,0-28-0.6-41.8,0c-0.2,0-0.4,0-0.6,0C47.1,275.1,47.1,290.1,56.8,290.1L56.8,290.1z"/>
	</g>
</g>
<polygon points="298.9,156.3 510.2,283.5 298.9,410.6 "/>
<g>
	<g>
		<path d="M56.8,273.4c11.4,0,22.8,0,34.2,0c27.4,0,54.8,0,82.2,0c33.2,0,66.4,0,99.6,0c28.8,0,57.7,0,86.5,0c9.5,0,18.9,0,28.4,0
			c4.3,0,9.2,0.6,13.5,0c0.2,0,0.4,0,0.6,0c2.4,0,2.4-3.8,0-3.8c-11.4,0-22.8,0-34.2,0c-27.4,0-54.8,0-82.2,0c-33.2,0-66.4,0-99.6,0
			c-28.8,0-57.7,0-86.5,0c-9.5,0-18.9,0-28.4,0c-4.3,0-9.2-0.6-13.5,0c-0.2,0-0.4,0-0.6,0C54.3,269.7,54.3,273.4,56.8,273.4
			L56.8,273.4z"/>
	</g>
</g>
</svg>
