<?xml version="1.0" encoding="utf-8"?>
<!-- Generator: Adobe Illustrator 19.1.0, SVG Export Plug-In . SVG Version: 6.00 Build 0)  -->
<svg version="1.1" id="Calque_1" xmlns="http://www.w3.org/2000/svg" xmlns:xlink="http://www.w3.org/1999/xlink" x="0px" y="0px"
	 viewBox="0 0 566.9 566.9" style="enable-background:new 0 0 566.9 566.9;" xml:space="preserve">
<path d="M283.1,502.6c-41.4,0-82.8,0-124.2,0c-14.3,0-28.1-2.4-40.8-9.4c-19.7-10.8-31-27.5-34-49.5c-3-21.8-0.7-43.7,2.1-65.3
	c2.4-17.9,6.3-35.6,13.4-52.3c7.1-16.8,15.9-32.5,30.6-43.9c14.9-11.6,32.1-17.3,50.9-16.4c4.9,0.2,9.8,4.1,14.3,6.8
	c7.5,4.5,14.4,9.9,22,14.1c30.5,16.8,62.6,22.9,96.9,14.3c20.5-5.2,38.6-15.2,55.7-27.3c3.3-2.4,6.8-4.6,10.4-6.4
	c2.4-1.2,5.3-1.9,7.9-1.8c30.1,0.8,53.1,14.1,68.8,40c9.4,15.5,15.5,32.2,19.6,49.7c6.2,26.6,8.5,53.6,7.3,80.7
	c-1,22.8-10.4,41.6-30,54.4c-12.7,8.3-26.8,12.1-41.8,12.1C369.2,502.6,326.1,502.5,283.1,502.6
	C283.1,502.6,283.1,502.6,283.1,502.6z"/>
<path d="M283.6,64.3c60.6,0,109.3,48.9,109.6,109.6c0.3,59.1-48.1,109.5-109.4,109.7c-60.6,0.2-110.1-49.5-109.8-109.7
	C174.2,113.4,223,64.3,283.6,64.3z"/>
</svg>
