<?xml version="1.0" encoding="utf-8"?>
<!-- Generator: Adobe Illustrator 19.1.0, SVG Export Plug-In . SVG Version: 6.00 Build 0)  -->
<svg version="1.1" id="Calque_1" xmlns="http://www.w3.org/2000/svg" xmlns:xlink="http://www.w3.org/1999/xlink" x="0px" y="0px"
	 viewBox="0 0 566.9 566.9" style="enable-background:new 0 0 566.9 566.9;" xml:space="preserve">
<path d="M193.3,505.9c-31,7.5-57.4-6.8-80.6-33.8c-20.6-23.9-44.8-44.7-66.7-67.6c-22.1-23.1-23.3-48.3-1-70.8
	c83.7-84.9,168-169.4,253.1-253c9.2-9.1,24.9-15.3,38-16.1c97.6-5.4,67.8-21.7,137.3,47.1c13,12.9,26,25.9,39,38.8
	c34.7,34.8,34.7,57.8-0.5,93.1c-74.8,75-149.6,149.9-224.5,224.7C251.3,504.3,251.2,504.2,193.3,505.9z M381.4,82.1
	c-0.6-1.8-1.3-3.6-1.9-5.4c-7.5,2.3-17.2,2.5-22.2,7.3c-43.2,41.4-81,80-124.7,123.1c6.6,4.2,9.8,7.5,14.8,10.7
	c-6.6,6.9-16.5,16.5-22.8,22.9c-33.6,33.6-67.1,67.3-100.9,100.8c-14.1,14-21,29.3-5.2,45.7c30.1,31.2,60.7,61.9,92,92
	c11.7,11.3,26.8,11.2,38.4-0.1c43.5-42.3,86.3-85.3,133.2-131.9c-46.4-44-90.8-86.2-138.2-131.3C292,169.1,336.7,125.6,381.4,82.1z
	 M181.2,493.5c3.3-4.5,6.6-9,9.9-13.5c-19.9-17.4-40.6-34-59.4-52.4c-56.1-54.9-56-65.1,0.2-120.9c29.3-29.1,59.3-57.5,89-86.2
	c-2-3.3-4-6.6-6-9.9c-10.9,4-24.6,5.2-32.3,12.6c-41.6,39.7-81.5,81.2-122.4,121.6c-16.5,16.3-16,31.6-0.1,47.6
	c26.5,26.6,52.1,54.2,79.9,79.3C151.2,481.7,167.3,486.4,181.2,493.5z"/>
</svg>
