<?xml version="1.0" encoding="utf-8"?>
<!-- Generator: Adobe Illustrator 19.1.0, SVG Export Plug-In . SVG Version: 6.00 Build 0)  -->
<svg version="1.1" id="Calque_1" xmlns="http://www.w3.org/2000/svg" xmlns:xlink="http://www.w3.org/1999/xlink" x="0px" y="0px"
	 viewBox="0 0 566.9 566.9" style="enable-background:new 0 0 566.9 566.9;" xml:space="preserve">
<style type="text/css">
	.st0{fill:#FFFFFF;}
</style>
<circle cx="283.5" cy="283.5" r="233.5"/>
<g>
	<g>
		<path class="st0" d="M136.3,146.9c9.4,9.4,18.8,18.8,28.2,28.2c22.6,22.6,45.2,45.2,67.7,67.7c27.3,27.3,54.6,54.6,81.9,81.9
			c23.6,23.6,47.2,47.2,70.9,70.9c11.4,11.4,22.5,23.5,34.4,34.4c0.2,0.2,0.3,0.3,0.5,0.5c6.8,6.8,17.4-3.8,10.6-10.6
			c-9.4-9.4-18.8-18.8-28.2-28.2c-22.6-22.6-45.2-45.2-67.7-67.7c-27.3-27.3-54.6-54.6-81.9-81.9c-23.6-23.6-47.2-47.2-70.9-70.9
			c-11.4-11.4-22.5-23.5-34.4-34.4c-0.2-0.2-0.3-0.3-0.5-0.5C140.1,129.5,129.5,140.1,136.3,146.9L136.3,146.9z"/>
	</g>
</g>
<g>
	<g>
		<path class="st0" d="M420,136.3c-9.4,9.4-18.8,18.8-28.2,28.2c-22.6,22.6-45.2,45.2-67.7,67.7c-27.3,27.3-54.6,54.6-81.9,81.9
			c-23.6,23.6-47.2,47.2-70.9,70.9c-11.4,11.4-23.5,22.5-34.4,34.4c-0.2,0.2-0.3,0.3-0.5,0.5c-6.8,6.8,3.8,17.4,10.6,10.6
			c9.4-9.4,18.8-18.8,28.2-28.2c22.6-22.6,45.2-45.2,67.7-67.7c27.3-27.3,54.6-54.6,81.9-81.9c23.6-23.6,47.2-47.2,70.9-70.9
			c11.4-11.4,23.5-22.5,34.4-34.4c0.2-0.2,0.3-0.3,0.5-0.5C437.4,140.1,426.8,129.5,420,136.3L420,136.3z"/>
	</g>
</g>
</svg>
