<?xml version="1.0" encoding="utf-8"?>
<!-- Generator: Adobe Illustrator 19.1.0, SVG Export Plug-In . SVG Version: 6.00 Build 0)  -->
<svg version="1.1" id="Calque_1" xmlns="http://www.w3.org/2000/svg" xmlns:xlink="http://www.w3.org/1999/xlink" x="0px" y="0px"
	 viewBox="0 0 566.9 566.9" style="enable-background:new 0 0 566.9 566.9;" xml:space="preserve">
<style type="text/css">
	.st0{fill:#FFFFFF;}
</style>
<g>
	<path d="M504.7,460.2H62.2c-6,0-10.9-4.9-10.9-10.9V192.5c0-6,4.9-10.9,10.9-10.9h442.6c6,0,10.9,4.9,10.9,10.9v256.8
		C515.6,455.3,510.7,460.2,504.7,460.2z"/>
	<g>
		<path d="M504.7,452.7c-9.7,0-19.4,0-29.2,0c-24.6,0-49.3,0-73.9,0c-32.6,0-65.2,0-97.7,0c-34.1,0-68.1,0-102.2,0
			c-28.6,0-57.2,0-85.8,0c-16.3,0-32.7,0-49,0c-3.2,0-7.5,0.8-8.1-3.4c-0.6-4.7,0-9.9,0-14.6c0-27.1,0-54.1,0-81.2
			c0-33.4,0-66.9,0-100.3c0-19.7-0.2-39.4,0-59.1c0-3.7,2.1-5,5.5-5c5,0,10,0,15,0c21.6,0,43.2,0,64.8,0c31.4,0,62.8,0,94.2,0
			c34.4,0,68.7,0,103.1,0c30.4,0,60.8,0,91.2,0c20,0,39.9,0,59.9,0c3.8,0,7.8-0.3,11.7,0c4.7,0.4,3.9,4.5,3.9,8.1
			c0,22.5,0,45,0,67.6c0,33.7,0,67.5,0,101.2c0,24.8,0,49.6,0,74.3C508.1,443.5,509.7,452.4,504.7,452.7c-9.6,0.6-9.7,15.6,0,15
			c10.4-0.6,18-8.1,18.4-18.7c0.1-1.8,0-3.6,0-5.3c0-9.2,0-18.4,0-27.6c0-31.9,0-63.8,0-95.7c0-31.7,0-63.3,0-95
			c0-9.2,0-18.4,0-27.6c0-1.7,0.1-3.4,0-5.1c-0.4-10.4-8-18.1-18.4-18.6c-10.2-0.4-20.5,0-30.8,0c-25.7,0-51.4,0-77.1,0
			c-33.6,0-67.3,0-100.9,0c-34.7,0-69.3,0-104,0c-28.1,0-56.2,0-84.3,0c-14.5,0-29.1-0.1-43.6,0c-11.1,0.1-19.9,7.1-20.3,18.7
			c-0.2,5.7,0,11.4,0,17.1c0,28.5,0,57.1,0,85.6c0,33.8,0,67.6,0,101.4c0,17.3-0.7,34.8,0,52.1c0.5,11.8,9.7,18.5,20.7,18.5
			c5.3,0,10.7,0,16,0c22.5,0,45,0,67.6,0c32.5,0,65,0,97.5,0c35,0,69.9,0,104.9,0c30.5,0,60.9,0,91.4,0c18.4,0,36.9,0,55.3,0
			c2.5,0,5,0,7.6,0C514.4,467.7,514.4,452.7,504.7,452.7z"/>
	</g>
</g>
<g>
	<path class="st0" d="M503.6,193.4H362.1c-6.6,0-12-5.4-12-12v-48.6c0-6.6,5.4-12,12-12h141.5c6.6,0,12,5.4,12,12v48.6
		C515.6,188,510.2,193.4,503.6,193.4z"/>
	<g>
		<path d="M503.6,185.9c-27.7,0-55.4,0-83.1,0c-16,0-32.1,0-48.1,0c-3.3,0-6.7,0.3-9.9,0c-5.7-0.5-4.8-5.9-4.8-10.2c0-9,0-18,0-27
			c0-4,0-7.9,0-11.9c0-1.6-0.3-3.7,0.2-5.3c1.2-4,5.5-3.3,8.7-3.3c5.6,0,11.2,0,16.8,0c35.2,0,70.4,0,105.6,0c4.4,0,8.8,0,13.1,0
			c4,0,6,2.1,6,6.1c0,15.3,0.6,30.8,0,46C508,183.3,506.9,185.7,503.6,185.9c-9.6,0.5-9.7,15.5,0,15c12.8-0.7,19.5-10.5,19.5-22.5
			c0-9.2,0-18.5,0-27.7c0-6.9,0.8-14.3-0.3-21.2c-1.8-10.3-10.7-16.1-20.7-16.2c-34.1-0.4-68.3,0-102.4,0c-12.3,0-24.7-0.4-37,0
			c-11.3,0.3-19.7,8.4-20.1,19.8c-0.3,7.5,0,15.1,0,22.6c0,8.3-0.1,16.6,0,24.9c0.2,11.4,8.2,20,19.7,20.4c11.5,0.4,23.1,0,34.7,0
			c34.8,0,69.5,0,104.3,0c0.8,0,1.5,0,2.3,0C513.2,200.9,513.3,185.9,503.6,185.9z"/>
	</g>
</g>
<g>
	<g>
		<path class="st0" d="M85.3,238.8c13.1,0,26.2,0,39.3,0c31.5,0,63,0,94.4,0c38.3,0,76.5,0,114.8,0c32.9,0,65.9,0,98.8,0
			c16,0,32.1,0.7,48.1,0c0.2,0,0.5,0,0.7,0c9.7,0,9.7-15,0-15c-13.1,0-26.2,0-39.3,0c-31.5,0-63,0-94.4,0c-38.3,0-76.5,0-114.8,0
			c-32.9,0-65.9,0-98.8,0c-16,0-32.1-0.7-48.1,0c-0.2,0-0.5,0-0.7,0C75.7,223.8,75.7,238.8,85.3,238.8L85.3,238.8z"/>
	</g>
</g>
</svg>
