<?xml version="1.0" encoding="utf-8"?>
<!-- Generator: Adobe Illustrator 19.1.0, SVG Export Plug-In . SVG Version: 6.00 Build 0)  -->
<svg version="1.1" id="Calque_1" xmlns="http://www.w3.org/2000/svg" xmlns:xlink="http://www.w3.org/1999/xlink" x="0px" y="0px"
	 viewBox="0 0 566.9 566.9" style="enable-background:new 0 0 566.9 566.9;" xml:space="preserve">
<style type="text/css">
	.st0{fill:#FFFFFF;}
</style>
<circle cx="283.5" cy="281.3" r="250.7"/>
<path class="st0" d="M116.3,291.9c0.5-4.7,1-9.4,1.7-14.1c1.2-8.5,2.5-16.9,6.7-24.6c1.9-3.6,4.5-6.6,8.3-8.4
	c2.9-1.3,5.6-1.3,8.6,0.1c8.4,3.9,16.9,7.7,25.5,11c8.1,3.1,16.8,3.4,25.3,2.3c5.2-0.7,10.3-1.9,15.9-2.9
	c-1.4,9.9-0.9,19.8,1.4,29.6c2.3,9.7,6.5,18.6,11.9,26.8c-5.4,1-10.6,1.8-15.7,3c-11.4,2.8-20.8,9-28.6,17.6c-1.8,2-3.7,2.8-6.4,2.7
	c-8.4-0.3-16.8-0.1-25.1-0.5c-8.4-0.5-16-3.3-22.3-9.2c-3.9-3.6-6-8.1-6.8-13.4c-0.1-0.5-0.3-1-0.5-1.5
	C116.3,304.3,116.3,298.1,116.3,291.9z"/>
<path class="st0" d="M283.3,541.9c-25.8,0-51.6,0-77.4,0c-9.1,0-17.9-1.5-26.1-5.9c-12.2-6.7-19.2-17.1-21.1-30.7
	c-1.9-13.7-0.4-97.5,1.4-111.1c1.5-11,3.9-21.9,8.2-32.2c4.4-10.6,10-20.5,19.1-27.8c9.3-7.3,20-10.9,31.8-10.3
	c3.1,0.2,6.3,2.6,9.2,4.3c6.6,3.9,12.8,8.5,19.6,11.8c17.7,8.4,36.1,10.9,55.3,5.7c10.7-2.9,20.7-7.5,29.7-13.9
	c3.4-2.4,7-4.6,10.6-6.7c1.2-0.7,2.7-1.3,4.1-1.3c15.1,0.1,28.2,5,38.2,16.7c10.1,11.9,15.3,26,18.7,41.1
	c3.5,16,4.8,102.2,4.2,118.6c-0.5,12-4.8,22.5-14.1,30.6c-7,6.1-15.2,10-24.4,10.5c-15,0.7-30,0.6-45.1,0.7
	C311.2,542,297.3,541.9,283.3,541.9z"/>
<path class="st0" d="M283.5,202c37.9,0,68.3,30.6,68.5,68.5c0.2,37.6-30.8,68.7-68.6,68.6c-38.3-0.1-68.5-31.6-68.4-68.5
	C215.1,232.7,245.6,202,283.5,202z"/>
<path class="st0" d="M345.1,312c11.7-17.3,16.3-36.2,13.5-57c1.2,0.3,2.1,0.4,2.9,0.6c16,4.9,31.6,4.1,46.9-2.6
	c5.4-2.4,10.7-4.9,16-7.5c5.2-2.5,10.3-2,14,2.5c2.6,3.1,5,6.7,6.2,10.4c2.2,7.3,3.8,14.8,4.8,22.4c1,8.4,1.2,16.9,1.3,25.4
	c0.3,15.3-8.6,23.9-23.1,27.4c-11.2,2.7-22.7,1.2-34,1.4c-0.9,0-2-0.8-2.7-1.5c-6.7-7.6-14.5-13.7-24.1-16.9
	c-6.2-2.1-12.9-2.9-19.4-4.3C346.7,312.2,346.1,312.2,345.1,312z"/>
<path class="st0" d="M180.7,247.7c-25,0.4-45.5-20.9-45.6-45.4c-0.1-24.9,20.9-45.8,45.4-45.9c24.6-0.1,46,20.1,46,45.7
	C226.5,227.2,206.1,247.6,180.7,247.7z"/>
<path class="st0" d="M386.1,247.7c-25.1,0-45.5-20.3-45.6-45.4c-0.1-25.7,21.3-45.8,45.5-45.9c24.7-0.1,46.2,20.8,45.8,45.8
	C431.5,227.6,411.7,247.6,386.1,247.7z"/>
</svg>
