<?xml version="1.0" encoding="utf-8"?>
<!-- Generator: Adobe Illustrator 21.0.2, SVG Export Plug-In . SVG Version: 6.00 Build 0)  -->
<svg version="1.1" id="Calque_1" xmlns="http://www.w3.org/2000/svg" xmlns:xlink="http://www.w3.org/1999/xlink" x="0px" y="0px"
	 viewBox="0 0 100 125" style="enable-background:new 0 0 100 125;" xml:space="preserve">
<path d="M81.7,61c-0.5,0.2-4.5,1.7-30.1,1.7c-28.4,0-32.6-1.4-33.1-1.7c0,0-0.1-0.1-0.1-0.1c-0.2-0.1-4.4-2.5-4.4-8.3
	c0-5.9,3.6-7,4.6-7.3c0.4,0.1,0.7,0.2,1,0.2c0.7,0.1,7.5,0.8,30.5,0.8c23.1,0,29.9-0.7,30.6-0.8c0.3,0,0.6-0.1,0.9-0.2
	c1.1,0.3,4.5,1.5,4.5,7.2c0,5.3-3.5,7.8-4.2,8.3C81.9,60.9,81.8,60.9,81.7,61z M17,36.2c-1.4,5,0.6,6.6,1.9,7.1c0,0,0.1,0,0.1,0
	c0.3,0.1,0.6,0.2,0.7,0.2c0,0,0.1,0,0.1,0c0.1,0,6.6,0.8,30.3,0.8c23.9,0,30.4-0.8,30.4-0.8c0,0,0.1,0,0.1,0c0,0,0.2,0,0.4-0.1
	c0.1-0.1,0.3-0.1,0.4-0.1c1.3-0.5,3.1-2.4,1.8-7.3C81.7,30.1,78,29,77.6,29H23.1C23,29,18.7,30.1,17,36.2z M18.1,62.9
	c-0.7,0.6-2.1,2.6-0.5,7.8c1.6,5.1,4.2,6.1,4.2,6.1c0.1,0,0.1,0.1,0.2,0.1c0,0,5.2,2.6,28.2,2.6c23.1,0,28.4-2.6,28.5-2.6
	c0.1,0,0.1-0.1,0.2-0.1c0,0,2.6-0.9,4.2-6.1c1.6-5.3,0.1-7.3-0.6-7.8c-3.8,1.5-18.4,1.8-30.7,1.8C38.2,64.7,22.3,64.4,18.1,62.9z
	 M22.3,25.3c-0.2,0.8,0,1.3,0.1,1.6c0.2,0.4,0.4,0.5,0.6,0.6l54.7,0c0.1,0,0.3-0.1,0.5-0.4c0.1-0.2,0.5-0.9,0.2-1.8
	c-2.3-7-7.5-9-8.5-9.3c0,0-1.1,0-1.1,0H32c0,0-1.1,0-1.2,0C29.8,16.4,24.6,18.4,22.3,25.3z M23.6,86.2c4.1,4.4,8.2,7.2,26.7,7.2
	c18.4,0,22.5-2.9,26.7-7.2c3-3.2,2.3-6,1.7-7.2c-2.3,0.8-9.6,2.5-28.5,2.5c-18.8,0-26-1.7-28.3-2.5C21.3,80.3,20.6,83.1,23.6,86.2z
	 M68.7,10.8c-2-1.8-8.2-3.4-10.8-3.6c-2.5-0.2-12.1-0.2-15,0C40,7.3,34,9.1,32.1,10.8c-1.5,1.4-1.3,2.2-1,3.2h38.7
	C70,13,70.2,12.2,68.7,10.8z M81.3,43.3c0,0,0.1,0,0.1-0.1c-0.2,0-0.3,0.1-0.4,0.1C81.1,43.4,81.2,43.4,81.3,43.3z"/>
</svg>
