<?xml version="1.0" encoding="utf-8"?>
<!-- Generator: Adobe Illustrator 19.1.0, SVG Export Plug-In . SVG Version: 6.00 Build 0)  -->
<svg version="1.1" id="Calque_1" xmlns="http://www.w3.org/2000/svg" xmlns:xlink="http://www.w3.org/1999/xlink" x="0px" y="0px"
	 viewBox="0 0 566.9 566.9" style="enable-background:new 0 0 566.9 566.9;" xml:space="preserve">
<style type="text/css">
	.st0{fill:#FFFFFF;}
</style>
<g>
	<path class="st0" d="M62,504.9c0-147.6,0-295.2,0-442.9c147.5,0,295.1,0,442.8,0c0,147.6,0,295.3,0,442.9
		C357.3,504.9,209.7,504.9,62,504.9z M436.7,324.6c-0.9,0-1.3,0.1-1.7,0c-16.9-7-34.5-7.6-52.1-4.2c-26.5,5-48.6,17.5-64,40.2
		c-9.6,14.2-13.6,29.8-9.1,46.7c5,18.7,18.2,30.2,35.9,36c35.6,11.6,68.2,4.3,97.2-18.8c18.7-14.9,27.6-34.6,27.5-59.1
		c-0.4-88.9-0.2-177.9-0.2-266.8c0-3.6-0.2-7.2-0.7-10.7c-1.7-11.8-9.6-20.5-21.1-23.5c-7.1-1.8-14-1.2-20.8,0.8
		c-62.4,19-124.7,38.2-187,57.1c-24.4,7.4-42.6,31.8-42.3,58.2c0.7,62.9,0.2,125.8,0.2,188.7c0,1.7,0,3.4,0,5.5
		c-2.9-1-5.3-2-7.7-2.7c-13.7-4-27.6-3.5-41.4-0.8c-27,5.4-49.4,18.4-65.1,41.6c-8.6,12.7-12.9,26.8-10.3,42.1
		c3.5,21.1,17.3,33.7,36.6,40.2c26.5,8.8,52.5,5.8,76.8-7.1c29.4-15.4,45.2-39.2,44.7-73.7c-0.8-52.9-0.1-105.9-0.3-158.9
		c0-8.2,2.8-14.7,9.2-19.4c3.9-2.8,8.3-5.3,12.9-6.7c37.2-11.9,74.5-23.5,111.8-35.2c18.2-5.7,36.4-11.6,54.8-16.8
		c10.3-2.9,16.1,2,16.3,12.6c0,0.9,0,1.7,0,2.6c0,42.5,0,84.9,0,127.4C436.7,321.4,436.7,323,436.7,324.6z"/>
	<path d="M436.7,324.6c0-1.6,0-3.1,0-4.7c0-42.5,0-84.9,0-127.4c0-0.9,0-1.7,0-2.6c-0.2-10.6-6.1-15.5-16.3-12.6
		c-18.4,5.2-36.5,11.1-54.8,16.8c-37.3,11.7-74.6,23.3-111.8,35.2c-4.6,1.5-9,3.9-12.9,6.7c-6.4,4.7-9.2,11.2-9.2,19.4
		c0.2,53-0.5,105.9,0.3,158.9c0.5,34.5-15.4,58.2-44.7,73.7c-24.4,12.8-50.4,15.9-76.8,7.1c-19.4-6.5-33.1-19.1-36.6-40.2
		c-2.6-15.4,1.7-29.4,10.3-42.1c15.7-23.1,38.1-36.2,65.1-41.6c13.8-2.7,27.7-3.2,41.4,0.8c2.4,0.7,4.8,1.7,7.7,2.7
		c0-2.2,0-3.8,0-5.5c0-62.9,0.5-125.8-0.2-188.7c-0.3-26.4,17.8-50.7,42.3-58.2c62.4-19,124.7-38.1,187-57.1
		c6.8-2.1,13.8-2.7,20.8-0.8c11.5,3,19.5,11.6,21.1,23.5c0.5,3.5,0.7,7.2,0.7,10.7c0,88.9-0.2,177.9,0.2,266.8
		c0.1,24.5-8.8,44.1-27.5,59.1c-28.9,23.1-61.5,30.3-97.2,18.8c-17.7-5.8-30.9-17.3-35.9-36c-4.6-16.9-0.5-32.6,9.1-46.7
		c15.4-22.7,37.5-35.2,64-40.2c17.7-3.4,35.2-2.8,52.1,4.2C435.3,324.7,435.8,324.6,436.7,324.6z"/>
</g>
</svg>
