<?xml version="1.0" encoding="utf-8"?>
<!-- Generator: Adobe Illustrator 19.1.0, SVG Export Plug-In . SVG Version: 6.00 Build 0)  -->
<svg version="1.1" id="Calque_1" xmlns="http://www.w3.org/2000/svg" xmlns:xlink="http://www.w3.org/1999/xlink" x="0px" y="0px"
	 viewBox="0 0 566.9 566.9" style="enable-background:new 0 0 566.9 566.9;" xml:space="preserve">
<g>
	<g>
		<path d="M140.9,42.4c0,16,0,32,0,48.1c0,38.5,0,76.9,0,115.4c0,46.3,0,92.7,0,139c0,40.1,0,80.1,0,120.2c0,19.5-0.6,39.2,0,58.7
			c0,0.3,0,0.6,0,0.8c0,7.8,6.9,15.4,15,15c8.1-0.4,15-6.6,15-15c0-16,0-32,0-48.1c0-38.5,0-76.9,0-115.4c0-46.3,0-92.7,0-139
			c0-40.1,0-80.1,0-120.2c0-19.5,0.6-39.2,0-58.7c0-0.3,0-0.6,0-0.8c0-7.8-6.9-15.4-15-15C147.8,27.7,140.9,34,140.9,42.4
			L140.9,42.4z"/>
	</g>
</g>
<g>
	<g>
		<path d="M225.9,42.4c0,16,0,32,0,48.1c0,38.5,0,76.9,0,115.4c0,46.3,0,92.7,0,139c0,40.1,0,80.1,0,120.2c0,19.5-0.6,39.2,0,58.7
			c0,0.3,0,0.6,0,0.8c0,7.8,6.9,15.4,15,15c8.1-0.4,15-6.6,15-15c0-16,0-32,0-48.1c0-38.5,0-76.9,0-115.4c0-46.3,0-92.7,0-139
			c0-40.1,0-80.1,0-120.2c0-19.5,0.6-39.2,0-58.7c0-0.3,0-0.6,0-0.8c0-7.8-6.9-15.4-15-15C232.8,27.7,225.9,34,225.9,42.4
			L225.9,42.4z"/>
	</g>
</g>
<g>
	<g>
		<path d="M311,42.4c0,16,0,32,0,48.1c0,38.5,0,76.9,0,115.4c0,46.3,0,92.7,0,139c0,40.1,0,80.1,0,120.2c0,19.5-0.6,39.2,0,58.7
			c0,0.3,0,0.6,0,0.8c0,7.8,6.9,15.4,15,15c8.1-0.4,15-6.6,15-15c0-16,0-32,0-48.1c0-38.5,0-76.9,0-115.4c0-46.3,0-92.7,0-139
			c0-40.1,0-80.1,0-120.2c0-19.5,0.6-39.2,0-58.7c0-0.3,0-0.6,0-0.8c0-7.8-6.9-15.4-15-15C317.9,27.7,311,34,311,42.4L311,42.4z"/>
	</g>
</g>
<g>
	<g>
		<path d="M396,42.4c0,16,0,32,0,48.1c0,38.5,0,76.9,0,115.4c0,46.3,0,92.7,0,139c0,40.1,0,80.1,0,120.2c0,19.5-0.6,39.2,0,58.7
			c0,0.3,0,0.6,0,0.8c0,7.8,6.9,15.4,15,15c8.1-0.4,15-6.6,15-15c0-16,0-32,0-48.1c0-38.5,0-76.9,0-115.4c0-46.3,0-92.7,0-139
			c0-40.1,0-80.1,0-120.2c0-19.5,0.6-39.2,0-58.7c0-0.3,0-0.6,0-0.8c0-7.8-6.9-15.4-15-15C402.9,27.7,396,34,396,42.4L396,42.4z"/>
	</g>
</g>
</svg>
