<?xml version="1.0" encoding="utf-8"?>
<!-- Generator: Adobe Illustrator 19.1.0, SVG Export Plug-In . SVG Version: 6.00 Build 0)  -->
<svg version="1.1" id="Calque_1" xmlns="http://www.w3.org/2000/svg" xmlns:xlink="http://www.w3.org/1999/xlink" x="0px" y="0px"
	 viewBox="0 0 566.9 566.9" style="enable-background:new 0 0 566.9 566.9;" xml:space="preserve">
<style type="text/css">
	.st0{fill:#FFFFFF;}
</style>
<circle cx="283.5" cy="281.3" r="250.7"/>
<path class="st0" d="M283.3,541.9c-25.8,0-51.6,0-77.4,0c-9.1,0-17.9-1.5-26.1-5.9c-12.2-6.7-19.2-17.1-21.1-30.7
	c-1.9-13.7-0.4-97.5,1.4-111.1c1.5-11,3.9-21.9,8.2-32.2c4.4-10.6,10-20.5,19.1-27.8c9.3-7.3,20-10.9,31.8-10.3
	c3.1,0.2,6.3,2.6,9.2,4.3c6.6,3.9,12.8,8.5,19.6,11.8c17.7,8.4,36.1,10.9,55.3,5.7c10.7-2.9,20.7-7.5,29.7-13.9
	c3.4-2.4,7-4.6,10.6-6.7c1.2-0.7,2.7-1.3,4.1-1.3c15.1,0.1,28.2,5,38.2,16.7c10.1,11.9,15.3,26,18.7,41.1
	c3.5,16,4.8,102.2,4.2,118.6c-0.5,12-4.8,22.5-14.1,30.6c-7,6.1-15.2,10-24.4,10.5c-15,0.7-30,0.6-45.1,0.7
	C311.2,542,297.3,541.9,283.3,541.9z"/>
<path class="st0" d="M283.5,202c37.9,0,68.3,30.6,68.5,68.5c0.2,37.6-30.8,68.7-68.6,68.6c-38.3-0.1-68.5-31.6-68.4-68.5
	C215.1,232.7,245.6,202,283.5,202z"/>
</svg>
