<?xml version="1.0" encoding="utf-8"?>
<!-- Generator: Adobe Illustrator 19.1.0, SVG Export Plug-In . SVG Version: 6.00 Build 0)  -->
<svg version="1.1" id="Calque_1" xmlns="http://www.w3.org/2000/svg" xmlns:xlink="http://www.w3.org/1999/xlink" x="0px" y="0px"
	 viewBox="0 0 566.9 566.9" style="enable-background:new 0 0 566.9 566.9;" xml:space="preserve">
<g>
	<g>
		<path d="M171.3,289.4c22,0,43.9,0,65.9,0c27.7,0,55.4,0,83.1,0c34.7,0,69.5,1.1,104.1-2.1c23.6-2.1,47.7-5.7,69.8-14.3
			c14.1-5.5,28.2-13,37.4-25.5c14.3-19.4,6-43.1-11.2-57.4c-18.8-15.6-44-23.8-67.6-28c-22.1-3.9-44.8-4.5-67-1.2
			c-1.1,0.2-2.3,0.3-3.4,0.6c-9.5,1.9-5.5,16.4,4,14.5c1.1-0.2,2.1-0.4,3.2-0.5c0.6-0.1,1.2-0.2,1.7-0.3c-0.3,0-0.7,0.1,0.7-0.1
			c1.9-0.2,3.8-0.4,5.7-0.6c10.6-0.9,21.3-1,31.9-0.3c26,1.8,53.7,8.5,75.7,23.1c1.2,0.8,2.3,1.6,3.4,2.4c1.1,0.8-0.8-0.7,0.5,0.4
			c0.6,0.5,1.2,1,1.7,1.5c1.9,1.7,3.8,3.5,5.4,5.4c0.4,0.5,0.8,0.9,1.2,1.4c1,1.1,0.3,0.3,0.3,0.3c0.7,0.9,1.4,1.9,2,2.9
			c0.6,1,1.2,1.9,1.7,3c0.3,0.5,0.5,1,0.7,1.5c0.8,1.7-0.2-0.5,0.2,0.4c0.7,2,1.3,4.1,1.7,6.2c0.3,1.3-0.1-1.8,0,0
			c0,0.5,0.1,1,0.1,1.6c0,1.1,0,2.1,0,3.1c-0.1,2.5,0.4-0.9-0.2,1.6c-0.3,1.1-0.5,2.1-0.8,3.1c-0.2,0.5-0.4,1-0.6,1.6
			c0,0,0.6-1.1-0.1,0.2c-0.6,1.1-1.1,2.2-1.8,3.3c-0.6,1-1.3,1.9-1.9,2.8c1.1-1.5-0.1,0.1-0.4,0.4c-0.5,0.6-1,1.1-1.5,1.7
			c-1,1-2,2-3,2.9c-0.5,0.5-1.1,1-1.7,1.4c-0.2,0.2-0.5,0.4-0.8,0.6c-0.9,0.7,0.9-0.7,0,0c-5.5,4.1-12.4,7.8-18.1,10.2
			c-19.8,8.4-41.7,12.1-62.9,14.4c-32.8,3.4-65.8,2.6-98.8,2.6c-28.2,0-56.3,0-84.5,0c-24.9,0-50-0.9-74.8,0c-0.3,0-0.6,0-0.9,0
			C161.6,274.4,161.6,289.4,171.3,289.4L171.3,289.4z"/>
	</g>
</g>
<polygon points="260.6,147.9 35.3,283.5 260.6,419.1 "/>
<g>
	<g>
		<path d="M227.8,269.4c17.6,0,35.1,0,52.7,0c22.6,0,45.1,0,67.7,0c27.6,0,55.4,0.8,82.9-1.6c18.3-1.6,36.9-4.3,54.3-10.6
			c10.1-3.7,20.6-8.8,27.4-17.5c10.3-13.2,4-28.7-8-38.2c-16.2-13-38.9-18.8-59.1-21.4c-15.6-2-32.3-2.4-47.9,0.5
			c-2.4,0.4-1.4,4.1,1,3.6c11.9-2.2,24.6-2.2,36.6-1.4c21.3,1.5,44.3,6.6,62.4,18.3c11.9,7.7,22.3,22,12.5,35.5
			c-6.1,8.5-16.5,13.4-26,16.9c-16.5,6.1-34.3,8.8-51.8,10.4c-26.3,2.4-52.8,1.7-79.2,1.7c-22,0-43.9,0-65.9,0
			c-19.9,0-39.7,0-59.6,0C225.4,265.6,225.4,269.4,227.8,269.4L227.8,269.4z"/>
	</g>
</g>
</svg>
