<?xml version="1.0" encoding="utf-8"?>
<!-- Generator: Adobe Illustrator 19.1.0, SVG Export Plug-In . SVG Version: 6.00 Build 0)  -->
<svg version="1.1" id="Calque_1" xmlns="http://www.w3.org/2000/svg" xmlns:xlink="http://www.w3.org/1999/xlink" x="0px" y="0px"
	 viewBox="0 0 566.9 566.9" style="enable-background:new 0 0 566.9 566.9;" xml:space="preserve">
<style type="text/css">
	.st0{fill:#FFFFFF;}
</style>
<g>
	<path class="st0" d="M107.7,324.3c0,0,110.8,116.5,126.8,183.9c0,0,133.3-427.1,224.8-449.6"/>
	<g>
		<path d="M97.1,334.9c13.2,13.9,25.8,28.4,38.1,43c5.5,6.6,11,13.2,16.4,20c2.7,3.4,5.4,6.8,8.1,10.3c2.5,3.2-1.9-2.4,0.6,0.8
			c0.7,1,1.5,1.9,2.2,2.9c1.6,2.1,3.2,4.2,4.8,6.4c11.3,15.1,22.1,30.7,31.7,46.9c4.9,8.3,9.5,16.8,13.6,25.5
			c0.4,0.9,0.9,1.9,1.3,2.8c0.3,0.6,0.5,1.2,0.8,1.9c-0.9-2-1-2.3-0.3-0.8c0.7,1.8,1.4,3.6,2.1,5.5c1.4,4,2.7,8,3.7,12.2
			c3.6,14.9,24.7,13.6,28.9,0c4.4-14.1,9.1-28.2,13.8-42.2c11.5-34.3,23.6-68.4,36.3-102.3c7.8-20.8,15.8-41.5,24.1-62
			c2.1-5.2,4.2-10.4,6.4-15.6c1.1-2.6,2.2-5.2,3.2-7.8c0.5-1.3,1.1-2.6,1.6-3.9c0.3-0.7,0.5-1.3,0.8-2c0.2-0.4,1.4-3.3,0.5-1.1
			c-0.9,2.1,0.9-2.1,1.1-2.6c0.6-1.3,1.1-2.6,1.7-3.9c1.2-2.8,2.4-5.5,3.6-8.3c2.2-5.2,4.5-10.3,6.8-15.5
			c17.2-38.6,35.6-77,58.1-112.8c4.7-7.4,9.5-14.7,14.7-21.8c1.2-1.6,2.4-3.2,3.6-4.8c1.4-2-2.4,3-0.1,0.1c0.7-0.8,1.3-1.7,2-2.5
			c2.4-2.9,4.8-5.8,7.3-8.6c4.4-4.8,9-9.3,14-13.5c2-1.7,0.6-0.3-0.9,0.6c0.6-0.4,1.1-0.9,1.7-1.3c1.2-0.9,2.4-1.7,3.6-2.5
			c2.2-1.4,4.6-2.6,7-3.8c2.6-1.3-3,1.1-1.5,0.6c0.6-0.2,1.1-0.4,1.7-0.6c1.1-0.4,2.2-0.7,3.3-1c7.9-2,12.6-10.8,10.5-18.5
			c-2.2-8-10.6-12.5-18.5-10.5c-12.9,3.3-24.2,11.6-33.7,20.6c-12,11.2-22,24.6-31.3,38.1c-23.4,34-41.9,71.4-59.2,108.8
			c-19.7,42.7-37.5,86.4-54.3,130.3c-13.8,36.1-26.8,72.5-39.2,109c-5.9,17.3-12.7,34.8-17.3,52.6c-0.1,0.2-0.2,0.5-0.2,0.7
			c9.6,0,19.3,0,28.9,0c-4-16.6-11.8-32.4-20.1-47.2c-9.3-16.5-19.9-32.2-31-47.5c-20.3-27.9-42.3-54.6-65.4-80.3
			c-4.7-5.2-9.4-10.5-14.3-15.6c-5.6-5.9-15.6-5.6-21.2,0C91.2,319.6,91.5,329.1,97.1,334.9L97.1,334.9z"/>
	</g>
</g>
</svg>
