<?xml version="1.0" encoding="utf-8"?>
<!-- Generator: Adobe Illustrator 19.1.0, SVG Export Plug-In . SVG Version: 6.00 Build 0)  -->
<svg version="1.1" id="Calque_1" xmlns="http://www.w3.org/2000/svg" xmlns:xlink="http://www.w3.org/1999/xlink" x="0px" y="0px"
	 viewBox="0 0 566.9 566.9" style="enable-background:new 0 0 566.9 566.9;" xml:space="preserve">
<style type="text/css">
	.st0{stroke:#010202;stroke-width:2;stroke-miterlimit:10;}
	.st1{fill:#FFFFFF;}
</style>
<path d="M438.2,343c0,39.6,0.1,79.3,0,118.9c0,25.4-10.9,36.6-35.8,36.6c-79.3,0.1-158.6,0.1-237.8,0c-24.5,0-35.7-11.2-35.8-35.3
	c-0.1-80.5-0.1-161.1,0-241.6c0-24.1,11.4-35.5,35.7-35.5c79.3-0.1,158.6-0.1,237.8,0c24.8,0,35.8,11.5,35.8,36.8
	C438.2,262.8,438.2,302.9,438.2,343z M417.9,343.6c0-40,0-80.1,0-120.1c0-14.8-2.2-17.1-16.8-17.1c-78.4-0.1-156.8-0.1-235.2,0
	c-14.6,0-16.8,2.3-16.8,17.1c0,79.2,0,158.5,0,237.7c0,15,1.9,16.9,16.7,16.9c78.4,0.1,156.8,0.1,235.2,0c14.9,0,16.7-1.9,16.8-16.9
	C417.9,422,417.8,382.8,417.9,343.6z"/>
<path d="M220.9,97.8c8.8-24.3,16.3-29.5,41.7-29.5c13.9,0,27.8,0,41.8,0c25.5,0.1,32.9,5.2,41.7,29.5c18.5,0,37.4-0.1,56.4,0
	c24.2,0.1,35.6,11.6,35.7,35.6c0.2,24.7-11.3,37.2-35.7,37.2c-79.3,0.2-158.6,0.2-237.9,0c-24.4-0.1-35.8-12.4-35.7-37.2
	c0.1-24,11.6-35.5,35.7-35.6C183.4,97.8,202.4,97.8,220.9,97.8z M283.2,149.7c38.3,0,76.7,0,115,0c17.3,0,19.6-1.8,19.6-15.4
	c0.1-14-2.5-16.1-20.3-16.1c-19,0-37.9-0.3-56.9,0.1c-10.7,0.2-17.2-3.4-16.5-15.1c0.6-10.4-4.9-14.4-14.6-14.3
	c-17.7,0.1-35.4,0-53.1,0c-9.2,0-14.3,4.1-13.7,13.9c0.8,11.5-5,15.8-16.1,15.6c-20.2-0.3-40.4,0.2-60.6-0.2
	c-11.2-0.2-17.2,3.1-17.2,15.8c0,12.4,5.4,16.1,16.9,16C204.9,149.5,244,149.7,283.2,149.7z"/>
<path class="st0" d="M417.9,343.6c0,39.2,0,78.4,0,117.6c0,15-1.9,16.9-16.8,16.9c-78.4,0.1-156.8,0.1-235.2,0
	c-14.8,0-16.7-1.9-16.7-16.9c-0.1-79.2-0.1-158.5,0-237.7c0-14.8,2.2-17.1,16.8-17.1c78.4-0.1,156.8-0.1,235.2,0
	c14.6,0,16.7,2.3,16.8,17.1C417.9,263.6,417.9,303.6,417.9,343.6z M314,343.5c0,30.7,0,61.5,0,92.2c0,7.2,0.8,14.4,9.8,14.7
	c10,0.3,10.6-7.3,10.6-15c-0.1-27.4,0-54.8,0-82.1c0-34.1,0.1-68.2-0.1-102.3c0-10.4-6.7-17-13-12.8c-3.9,2.6-6.9,9.4-7,14.4
	C313.7,282.9,314,313.2,314,343.5z M212.3,344.9c0-30.3,0-60.6,0-91c0-7.9-0.3-16.5-10.9-16.4c-10.2,0.2-9.5,8.8-9.5,16
	c0,51.4,0,102.8,0,154.1c0,10.5-0.8,21.2,0.5,31.5c0.5,4.2,5.6,7.8,8.6,11.7c3.7-3.8,8-7.2,11-11.5c1.4-2,0.3-5.7,0.3-8.7
	C212.3,402.2,212.3,373.5,212.3,344.9z M232.6,344.9c0,29.9,0,59.8,0,89.7c0,7.4-0.2,15.6,9.8,15.9c9.9,0.3,10.7-7.5,10.7-15.1
	c0-61.1,0-122.1,0-183.2c0-7.3-1.1-14.4-10-14.7c-10-0.2-10.5,7.5-10.5,15.2C232.6,283.4,232.6,314.2,232.6,344.9z M293.7,345.6
	c0-26.5,0-53,0-79.6c0-4.6,0-9.3,0-13.9c0-7.1-0.8-14.5-9.9-14.6c-10-0.2-10.6,7.7-10.6,15.2c0,0.8,0,1.7,0,2.5
	c0,58.9,0,117.9,0,176.8c0,2.5-0.9,5.7,0.3,7.5c2.7,4.1,6.3,7.5,9.6,11.3c3.5-3.5,7.7-6.5,10.2-10.6c1.5-2.5,0.4-6.6,0.4-9.9
	C293.7,402,293.7,373.8,293.7,345.6z M375,343.6c0-30.3,0-60.6,0-91c0-7,0.1-14.7-9.2-15.1c-9.8-0.5-11.2,7.1-11.2,14.8
	c0,61.1,0,122.1,0,183.2c0,7.8,1.5,15.3,11,15.1c9.1-0.1,9.5-7.8,9.5-14.9C375,405.1,375,374.3,375,343.6z"/>
<path class="st1" d="M283.2,149.7c-39.2,0-78.3-0.2-117.5,0.1c-11.5,0.1-16.9-3.6-16.9-16c0-12.6,6-16,17.2-15.8
	c20.2,0.4,40.4-0.1,60.6,0.2c11,0.2,16.8-4.1,16.1-15.6c-0.6-9.8,4.5-13.9,13.7-13.9c17.7,0,35.4,0,53.1,0c9.7,0,15.2,3.9,14.6,14.3
	c-0.7,11.8,5.7,15.3,16.5,15.1c18.9-0.3,37.9-0.1,56.9-0.1c17.8,0,20.4,2.1,20.3,16.1c-0.1,13.5-2.3,15.4-19.6,15.4
	C359.9,149.8,321.5,149.7,283.2,149.7z"/>
<path class="st1" d="M314,343.5c0-30.3-0.3-60.7,0.3-91c0.1-5,3.1-11.8,7-14.4c6.3-4.2,13,2.4,13,12.8c0.2,34.1,0.1,68.2,0.1,102.3
	c0,27.4,0,54.8,0,82.1c0,7.7-0.6,15.3-10.6,15c-9.1-0.3-9.8-7.5-9.8-14.7C314,405,314,374.3,314,343.5z"/>
<path class="st1" d="M212.3,344.9c0,28.6,0,57.3,0,85.9c0,2.9,1.1,6.7-0.3,8.7c-3,4.3-7.2,7.7-11,11.5c-3-3.9-8.1-7.5-8.6-11.7
	c-1.3-10.4-0.5-21-0.5-31.5c0-51.4,0-102.8,0-154.1c0-7.2-0.8-15.8,9.5-16c10.6-0.2,10.9,8.5,10.9,16.4
	C212.3,284.2,212.3,314.6,212.3,344.9z"/>
<path class="st1" d="M232.6,344.9c0-30.7,0-61.5,0-92.2c0-7.6,0.5-15.4,10.5-15.2c8.9,0.2,10,7.4,10,14.7c0,61.1,0,122.1,0,183.2
	c0,7.7-0.8,15.4-10.7,15.1c-10-0.3-9.8-8.4-9.8-15.9C232.6,404.7,232.6,374.8,232.6,344.9z"/>
<path class="st1" d="M293.7,345.6c0,28.2,0,56.4,0,84.6c0,3.4,1.1,7.5-0.4,9.9c-2.5,4.1-6.7,7.1-10.2,10.6
	c-3.3-3.7-6.9-7.2-9.6-11.3c-1.2-1.8-0.3-4.9-0.3-7.5c0-58.9,0-117.9,0-176.8c0-0.8,0-1.7,0-2.5c0-7.5,0.6-15.4,10.6-15.2
	c9.1,0.2,9.9,7.5,9.9,14.6c0,4.6,0,9.3,0,13.9C293.7,292.6,293.7,319.1,293.7,345.6z"/>
<path class="st1" d="M375,343.6c0,30.7,0,61.5,0,92.2c0,7.1-0.3,14.7-9.5,14.9c-9.4,0.1-11-7.3-11-15.1c0-61.1,0-122.1,0-183.2
	c0-7.7,1.4-15.2,11.2-14.8c9.3,0.4,9.2,8.1,9.2,15.1C375,282.9,375,313.2,375,343.6z"/>
</svg>
