<?xml version="1.0" encoding="utf-8"?>
<!-- Generator: Adobe Illustrator 19.1.0, SVG Export Plug-In . SVG Version: 6.00 Build 0)  -->
<svg version="1.1" id="Calque_1" xmlns="http://www.w3.org/2000/svg" xmlns:xlink="http://www.w3.org/1999/xlink" x="0px" y="0px"
	 viewBox="0 0 566.9 566.9" style="enable-background:new 0 0 566.9 566.9;" xml:space="preserve">
<g>
	<g>
		<path d="M254.3,71.8c0,32.3,0,64.5,0,96.8c0,51.5,0,103,0,154.5c0,11.9,0,23.8,0,35.7c0,15.7,13.8,30.7,30,30
			c16.3-0.7,30-13.2,30-30c0-32.3,0-64.5,0-96.8c0-51.5,0-103,0-154.5c0-11.9,0-23.8,0-35.7c0-15.7-13.8-30.7-30-30
			C268.1,42.5,254.3,54.9,254.3,71.8L254.3,71.8z"/>
	</g>
</g>
<polygon points="410.6,283.9 283.5,495.2 156.3,283.9 "/>
</svg>
