<?xml version="1.0" encoding="utf-8"?>
<!-- Generator: Adobe Illustrator 19.1.0, SVG Export Plug-In . SVG Version: 6.00 Build 0)  -->
<svg version="1.1" id="Calque_1" xmlns="http://www.w3.org/2000/svg" xmlns:xlink="http://www.w3.org/1999/xlink" x="0px" y="0px"
	 viewBox="0 0 566.9 566.9" style="enable-background:new 0 0 566.9 566.9;" xml:space="preserve">
<g>
	<path d="M84.5,50.4h398.3l3.8,119.7h-16.9c-8.3-37.6-18.7-62.1-31.5-73.4c-12.7-11.3-39.5-17-80.3-17h-39.2v360.4
		c0,27.1,4.2,44,12.7,50.5c8.5,6.5,27.1,10.8,55.7,12.8v13.1H181.8v-13.1c29.8-2.3,48.4-7.2,55.7-14.7c7.3-7.5,11-26.5,11-56.8V79.7
		H209c-39,0-65.5,5.6-79.6,16.9c-14.1,11.2-24.7,35.8-31.8,73.6H80.4L84.5,50.4z"/>
</g>
</svg>
