<?xml version="1.0" encoding="utf-8"?>
<!-- Generator: Adobe Illustrator 19.1.0, SVG Export Plug-In . SVG Version: 6.00 Build 0)  -->
<svg version="1.1" id="Calque_1" xmlns="http://www.w3.org/2000/svg" xmlns:xlink="http://www.w3.org/1999/xlink" x="0px" y="0px"
	 viewBox="0 0 566.9 566.9" style="enable-background:new 0 0 566.9 566.9;" xml:space="preserve">
<path d="M243.7,82.8c5.3,0.8,10.5,1.7,15.8,2.5c13.4,2.1,26,6.4,38.3,12.1c15.3,7.2,28.9,16.8,41,28.6c8,7.8,15.1,16.5,21.1,26
	c7.8,12.3,13.9,25.4,17.9,39.5c7.9,27.9,7.9,55.8,0,83.7c-5.1,17.9-13.4,34.3-24.8,49.1c-19.8,25.9-45.4,43.7-76.5,53
	c-26.8,8.1-54,8.5-81.2,1.4c-20.4-5.3-38.8-14.6-55.4-27.7c-11.1-8.8-20.8-18.9-29-30.5c-14-19.8-23.1-41.7-26.3-65.8
	c-0.5-3.7-1.2-7.3-1.8-11c0-7.1,0-14.1,0-21.2c0.6-3.8,1.3-7.5,1.9-11.3c3.7-26.9,14.5-50.9,31.3-72.1c11-13.8,24.1-25.2,39.1-34.4
	c15.5-9.4,32.2-15.9,50.1-19.2c5.7-1.1,11.5-1.9,17.3-2.8C229.6,82.8,236.7,82.8,243.7,82.8z M233.3,120.6
	c-62.1,0-112.6,50.4-112.7,112.6c-0.1,62.4,50.3,112.9,112.6,113c62.2,0.1,112.9-50.7,113-112.8
	C346.3,171.4,295.4,120.5,233.3,120.6z"/>
<path d="M438.1,484.1c-3.6-1.1-7.6-1.7-10.8-3.5c-5-2.8-10.1-5.9-14.2-9.9c-32.4-32-64.5-64.3-96.6-96.5c-0.6-0.6-1.2-1.3-2.1-2.4
	c23.3-15.2,42.4-34.3,57.8-57.9c6.7,6.8,12.8,13.2,19.1,19.5c26.2,26.2,52.3,52.5,78.6,78.5c7.5,7.4,11.9,16.1,14.2,26.1
	c0,3.3,0,6.5,0,9.8c-0.2,0.8-0.5,1.5-0.6,2.3c-2.7,12.5-9.1,22.6-20.7,28.6c-4.7,2.4-9.9,3.6-14.9,5.4
	C444.6,484.1,441.3,484.1,438.1,484.1z"/>
<g>
	<g>
		<path d="M228.3,149.8c0,48.8,0,97.7,0,146.5c0,6.8,0,13.7,0,20.5c0,6.4,10,6.4,10,0c0-48.8,0-97.7,0-146.5c0-6.8,0-13.7,0-20.5
			C238.3,143.3,228.3,143.3,228.3,149.8L228.3,149.8z"/>
	</g>
</g>
<g>
	<g>
		<path d="M316.8,228.3c-48.8,0-97.7,0-146.5,0c-6.8,0-13.7,0-20.5,0c-6.4,0-6.4,10,0,10c48.8,0,97.7,0,146.5,0c6.8,0,13.7,0,20.5,0
			C323.2,238.3,323.2,228.3,316.8,228.3L316.8,228.3z"/>
	</g>
</g>
</svg>
