<?xml version="1.0" encoding="utf-8"?>
<!-- Generator: Adobe Illustrator 19.1.0, SVG Export Plug-In . SVG Version: 6.00 Build 0)  -->
<svg version="1.1" id="Calque_1" xmlns="http://www.w3.org/2000/svg" xmlns:xlink="http://www.w3.org/1999/xlink" x="0px" y="0px"
	 viewBox="0 0 566.9 566.9" style="enable-background:new 0 0 566.9 566.9;" xml:space="preserve">
<g>
	<g>
		<path d="M177,353.6c17.7-18.1,24.2-45.4,24.2-70.1c0-24.7-6.5-51.9-24.2-70.1c-6.8-6.9-17.4,3.7-10.6,10.6
			c14.9,15.3,19.8,38.8,19.8,59.5c0,20.7-4.9,44.2-19.8,59.5C159.6,349.9,170.2,360.5,177,353.6L177,353.6z"/>
	</g>
</g>
<g>
	<g>
		<path d="M222,422.5c26.4-26.7,39.8-64.8,44.9-101.4c5.9-42.2,2.6-87.1-13.5-126.8c-7.4-18.3-17.4-35.7-31.4-49.8
			c-6.8-6.9-17.4,3.7-10.6,10.6c24.4,24.7,36.2,60.2,40.9,93.9c5.6,39.1,1.9,80.7-12.6,117.6c-6.5,16.6-15.8,32.6-28.4,45.3
			C204.6,418.7,215.2,429.4,222,422.5L222,422.5z"/>
	</g>
</g>
<g>
	<g>
		<path d="M270.3,471.8c35.7-36,53.6-87.6,60.7-136.8c8.2-57.3,3.6-118.3-18.2-172.3c-10-24.8-23.5-48.5-42.5-67.5
			c-6.8-6.9-17.4,3.7-10.6,10.6c33.7,34,50,82.9,56.7,129.3c7.8,54.3,2.9,111.9-17.2,163.1c-9.1,23.1-21.9,45.3-39.5,63
			C252.9,468.1,263.5,478.7,270.3,471.8L270.3,471.8z"/>
	</g>
</g>
<g>
	<g>
		<path d="M315.6,538.7c48.6-48.8,72.7-119.2,82.2-186.1c11-77.6,4.6-160.1-24.9-233.3c-13.5-33.5-31.8-65.4-57.4-91.1
			c-6.8-6.9-17.4,3.8-10.6,10.6c46.6,46.8,69,114.6,78.2,178.6c10.7,74.5,3.8,153.8-23.9,224c-12.5,31.8-30.1,62.3-54.3,86.6
			C298.2,534.9,308.8,545.6,315.6,538.7L315.6,538.7z"/>
	</g>
</g>
</svg>
